<svg width="108" height="108" viewBox="0 0 108 108" fill="none" xmlns="http://www.w3.org/2000/svg">
<g clip-path="url(#clip0_21426_73)">
<path d="M25.4693 68.5831L36.4584 56.4213C36.7359 56.1141 36.8801 55.7092 36.8592 55.2957C36.8382 54.8822 36.6539 54.494 36.3467 54.2164C36.0395 53.9388 35.6346 53.7947 35.2211 53.8156C34.8076 53.8366 34.4194 54.0209 34.1418 54.3281L23.1528 66.4899C22.8752 66.7971 22.731 67.202 22.752 67.6155C22.7729 68.029 22.9573 68.4172 23.2645 68.6948C23.5717 68.9723 23.9765 69.1165 24.39 69.0956C24.8035 69.0746 25.1917 68.8903 25.4693 68.5831Z" fill="url(#paint0_linear_21426_73)"/>
<path d="M29.5494 76.4882L40.5384 64.3264C40.816 64.0192 40.9602 63.6143 40.9392 63.2009C40.9183 62.7874 40.7339 62.3991 40.4267 62.1216C40.1196 61.844 39.7147 61.6998 39.3012 61.7208C38.8877 61.7417 38.4995 61.9261 38.2219 62.2333L27.2329 74.3951C26.9553 74.7023 26.8111 75.1071 26.8321 75.5206C26.853 75.9341 27.0374 76.3224 27.3445 76.5999C27.6517 76.8775 28.0566 77.0217 28.4701 77.0007C28.8836 76.9798 29.2718 76.7954 29.5494 76.4882Z" fill="url(#paint1_linear_21426_73)"/>
<path d="M46.6101 67.7115C46.3029 67.434 45.898 67.2898 45.4845 67.3107C45.0711 67.3317 44.6828 67.516 44.4053 67.8232L33.4162 79.985C33.1386 80.2922 32.9945 80.6971 33.0154 81.1106C33.0364 81.5241 33.2207 81.9123 33.5279 82.1899C33.8351 82.4675 34.2399 82.6116 34.6534 82.5907C35.0669 82.5697 35.4552 82.3854 35.7327 82.0782L46.7218 69.9164C46.9994 69.6092 47.1435 69.2043 47.1226 68.7908C47.1016 68.3773 46.9173 67.9891 46.6101 67.7115Z" fill="url(#paint2_linear_21426_73)"/>
<path d="M54.8854 70.9759C54.5782 70.6984 54.1733 70.5542 53.7598 70.5752C53.3463 70.5961 52.9581 70.7804 52.6805 71.0876L41.6915 83.2494C41.4139 83.5566 41.2697 83.9615 41.2907 84.375C41.3116 84.7885 41.496 85.1767 41.8032 85.4543C42.1104 85.7319 42.5152 85.876 42.9287 85.8551C43.3422 85.8341 43.7304 85.6498 44.008 85.3426L54.9971 73.1808C55.2746 72.8736 55.4188 72.4687 55.3978 72.0552C55.3769 71.6417 55.1926 71.2535 54.8854 70.9759Z" fill="url(#paint3_linear_21426_73)"/>
<path d="M72.5437 24.0815C69.8382 22.8827 66.9132 22.2591 63.9541 22.2501C60.995 22.2411 58.0663 22.847 55.3537 24.0294C56.6003 23.6088 57.9179 23.4391 59.2304 23.5301C61.9041 23.6883 64.4886 24.5505 66.7217 26.0294C67.8407 26.7849 68.8636 27.7107 69.6891 28.8242C70.964 30.519 71.6216 32.5985 71.5532 34.7182C71.5445 36.8218 70.9386 38.8798 69.8061 40.6526C69.0554 41.81 68.1351 42.848 67.0759 43.7318C64.9985 45.4905 62.6283 46.7145 60.3352 47.9052L59.4782 48.351L59.0529 48.5727C58.3728 48.9312 57.7218 49.3424 57.1059 49.8025C56.1367 50.5243 55.3069 51.4163 54.6568 52.435C54.031 53.4528 53.685 54.6178 53.6536 55.8121C53.6177 57.0061 53.9358 58.2219 54.499 59.3179C55.0843 60.4327 55.858 61.4378 56.786 62.2889C57.7191 63.1593 58.7842 63.8961 59.9186 64.5234C58.6935 64.0624 57.5405 63.4291 56.4943 62.6425C55.4217 61.8424 54.5053 60.852 53.7908 59.7206C53.0542 58.5495 52.6309 57.2086 52.5618 55.8268C52.5019 54.4173 52.8356 53.0189 53.5258 51.7884C54.198 50.574 55.1057 49.5058 56.1956 48.6462C56.856 48.1084 57.5619 47.629 58.3052 47.2133L58.734 46.9723L59.5876 46.499C61.8507 45.2587 64.1004 44.0488 65.9833 42.448C66.9171 41.672 67.7313 40.7626 68.3996 39.749C69.0521 38.7452 69.5126 37.6356 69.7533 36.4597C69.8784 35.8695 69.9564 35.2703 69.9866 34.6678C70.0222 34.064 69.9919 33.4724 69.8955 32.8931C69.6937 31.7145 69.2468 30.5913 68.5837 29.5962C67.8968 28.5787 67.0432 27.6843 66.0589 26.9507C65.0635 26.1898 63.9749 25.5591 62.8197 25.074C61.6551 24.5688 60.4318 24.2116 59.1784 24.0108C58.5501 23.9054 57.9163 23.8513 57.2772 23.8485C56.6322 23.8384 55.988 23.8976 55.3556 24.025C46.0901 28.0605 40.9198 38.036 42.9645 47.9329C45.0092 57.8298 53.7091 64.9402 63.8151 64.9733C73.9211 65.0064 82.6678 57.9537 84.7771 48.0709C86.8869 38.1868 81.7823 28.1776 72.5437 24.0815ZM47.5464 43.3232C46.2975 44.7117 44.7863 45.8958 43.0595 46.5585C44.3563 45.343 45.5095 43.983 46.4966 42.5049C47.4648 41.0543 48.27 39.5262 48.9123 37.9207C49.5574 36.3219 50.0021 34.6492 50.2362 32.9411C50.4676 31.1877 50.4328 29.4095 50.1331 27.6665C51.079 29.2909 51.5689 31.1405 51.5512 33.0201C51.5526 34.9128 51.1889 36.7879 50.48 38.5427C49.7859 40.2966 48.7903 41.922 47.5483 43.3188M74.1274 56.1875C74.4564 54.3339 75.1071 52.5521 76.0502 50.9228C76.9866 49.2773 78.2318 47.8281 79.7175 46.6544C81.2022 45.495 82.9655 44.6563 84.7983 44.4456C83.2455 45.2935 81.8296 46.3712 80.5987 47.6421C79.4039 48.885 78.3677 50.271 77.5135 51.7686C76.6536 53.2637 75.9542 54.8421 75.4152 56.5037C74.868 58.1951 74.5166 59.9435 74.3677 61.7149C73.8533 59.9186 73.7703 58.0262 74.1255 56.1918" fill="url(#paint4_linear_21426_73)"/>
</g>
<defs>
<linearGradient id="paint0_linear_21426_73" x1="22.1062" y1="67.6482" x2="35.1884" y2="53.1698" gradientUnits="userSpaceOnUse">
<stop stop-color="#FFF72E"/>
<stop offset="1" stop-color="#DEAE29"/>
</linearGradient>
<linearGradient id="paint1_linear_21426_73" x1="26.1863" y1="75.5533" x2="39.2685" y2="61.075" gradientUnits="userSpaceOnUse">
<stop stop-color="#FFF72E"/>
<stop offset="1" stop-color="#DEAE29"/>
</linearGradient>
<linearGradient id="paint2_linear_21426_73" x1="32.3696" y1="81.1433" x2="45.4518" y2="66.665" gradientUnits="userSpaceOnUse">
<stop stop-color="#FFF72E"/>
<stop offset="1" stop-color="#DEAE29"/>
</linearGradient>
<linearGradient id="paint3_linear_21426_73" x1="40.6449" y1="84.4077" x2="53.7271" y2="69.9294" gradientUnits="userSpaceOnUse">
<stop stop-color="#FFF72E"/>
<stop offset="1" stop-color="#DEAE29"/>
</linearGradient>
<linearGradient id="paint4_linear_21426_73" x1="53.0086" y1="15.4265" x2="92.0724" y2="32.7372" gradientUnits="userSpaceOnUse">
<stop stop-color="#FFA62E"/>
<stop offset="1" stop-color="#F71B3D"/>
</linearGradient>
<clipPath id="clip0_21426_73">
<rect width="62.5" height="63.6071" fill="white" transform="translate(22.75 22.25)"/>
</clipPath>
</defs>
</svg>
